<svg width="508" height="138" viewBox="0 0 508 138" fill="none" xmlns="http://www.w3.org/2000/svg">
<path d="M25.36 8.6V14.92H16.88V40H9.08V14.92H0.6V8.6H25.36ZM54.3756 19.2C54.3756 23.52 52.1756 27.08 48.0156 28.76L54.8956 40H47.0556L40.7756 29.8H37.2156V40H29.4156V17.12H37.2156V23.72H42.0956C45.2956 23.72 47.2556 21.92 47.2556 19.2C47.2556 16.48 45.6556 14.92 42.0956 14.92H27.0156V8.6H42.2556C50.5756 8.6 54.3756 13.08 54.3756 19.2ZM76.8956 32.48H65.4556L62.8956 40H55.7756L66.9756 8.6H75.2556L86.6556 40H79.5356L76.8956 32.48ZM67.5356 26.44H74.7756L71.0956 16.04L67.5356 26.44ZM92.3834 40L84.1834 8.6H92.1034L98.1834 33.68C101.903 26.52 104.743 16.56 104.863 8.6H112.623C112.543 16.96 108.983 31.16 103.023 40H92.3834ZM116.213 14.8H113.813V8.6H138.133V14.8H123.973V21H137.413V26.88H123.973V33.8H138.373V40H116.213V14.8ZM164.44 40H142.68V8.6H150.44V33.6H164.44V40Z" fill="#8270FF"/>
<path d="M249.56 93.32C249.56 83.56 254.84 77.24 264.52 77.24C268.76 77.24 272 78.08 274.64 79.76L272.36 85.88C270.48 84.64 267.72 84 264.8 84C259.8 84 257.08 87.68 257.08 93.32C257.08 99.44 259.8 102.52 264.8 102.52C267.88 102.52 270.44 101.68 272.52 100.36L274.96 106.6C272.32 108.48 268.56 109.4 264.2 109.4C254.88 109.4 249.56 103.4 249.56 93.32ZM292.188 109.2C283.868 109.2 276.748 103.64 276.748 93.2C276.748 82.72 283.868 77.2 292.188 77.2C300.508 77.2 307.628 82.72 307.628 93.2C307.628 103.64 300.508 109.2 292.188 109.2ZM292.188 83.72C287.548 83.72 284.388 87.08 284.388 93.2C284.388 99.32 287.548 102.68 292.188 102.68C296.828 102.68 299.988 99.32 299.988 93.2C299.988 87.08 296.828 83.72 292.188 83.72ZM328.052 100.56L320.532 91.04L319.412 89.36V109H312.092V77.6H318.852L328.572 90.68L338.292 77.6H345.052V109H337.732V89.36L336.612 91.04L329.092 100.56H328.052ZM363.561 94.16C367.001 94.16 369.241 92.24 369.241 88.92C369.241 85.6 367.361 83.92 363.561 83.92H348.961V77.6H363.841C372.161 77.6 376.361 82.2 376.361 88.92C376.361 95.52 371.681 100.32 363.841 100.32H359.161V109H351.361V86.08H359.161V94.16H363.561ZM395.638 101.48H384.198L381.638 109H374.518L385.718 77.6H393.998L405.398 109H398.278L395.638 101.48ZM386.278 95.44H393.518L389.838 85.04L386.278 95.44ZM427.308 86.64C423.508 85.08 420.548 84.32 418.108 84.32C416.748 84.32 415.068 84.68 414.708 86.24C414.428 87.6 414.988 88.48 416.988 89.24C419.108 90.04 423.708 91.24 426.108 92.76C430.308 95.48 430.708 99.84 429.348 103.72C427.908 107.84 424.148 109.64 418.788 109.64C414.708 109.64 409.828 108.56 406.268 106.6L408.148 99.68C411.228 101.04 415.228 102.64 418.668 102.64C420.828 102.64 421.788 101.8 422.148 100.64C422.508 99.32 421.708 98.12 419.788 97.36C417.388 96.44 414.068 95.52 411.428 94.28C407.868 92.6 406.348 89.04 406.988 84.96C407.868 79.6 412.668 77.44 417.548 77.44C421.188 77.44 425.668 78.36 429.348 79.88L427.308 86.64ZM453.324 86.64C449.524 85.08 446.564 84.32 444.124 84.32C442.764 84.32 441.084 84.68 440.724 86.24C440.444 87.6 441.004 88.48 443.004 89.24C445.124 90.04 449.724 91.24 452.124 92.76C456.324 95.48 456.724 99.84 455.364 103.72C453.924 107.84 450.164 109.64 444.804 109.64C440.724 109.64 435.844 108.56 432.284 106.6L434.164 99.68C437.244 101.04 441.244 102.64 444.684 102.64C446.844 102.64 447.804 101.8 448.164 100.64C448.524 99.32 447.724 98.12 445.804 97.36C443.404 96.44 440.084 95.52 437.444 94.28C433.884 92.6 432.364 89.04 433.004 84.96C433.884 79.6 438.684 77.44 443.564 77.44C447.204 77.44 451.684 78.36 455.364 79.88L453.324 86.64Z" fill="#7CDDA3"/>
<path d="M237 29.1223L222.424 43.6894C217.539 48.5579 209 45.2228 209 38.4376V8" stroke="black" stroke-width="8" stroke-miterlimit="10"/>
<path d="M237.927 84L223.317 69.9447C218.435 65.234 221.779 57 228.584 57H319" stroke="#7CDDA3" stroke-width="8" stroke-miterlimit="10"/>
<path d="M182 85.3393L196.055 70.3738C200.766 65.3722 209 68.7985 209 75.7693V107" stroke="black" stroke-width="8" stroke-miterlimit="10"/>
<path d="M180.032 31L194.677 44.5348C199.572 49.0709 196.219 57 189.397 57H93" stroke="#8270FF" stroke-width="8" stroke-miterlimit="10"/>
</svg>
