<svg width="160" height="36" viewBox="0 0 160 36" fill="none" xmlns="http://www.w3.org/2000/svg">
<path d="M57.4504 11.2207H49.8203V0.210327H52.5414V8.97655H57.4504V11.2207Z" fill="#8270FF"/>
<path d="M40.5408 2.38435H39.6992V0.210327H48.227V2.38435H43.2618V4.55838H47.9745V6.62019H43.2618V9.04668H48.3112V11.2207H40.5408V2.38435Z" fill="#8270FF"/>
<path d="M32.1839 11.2207L29.3086 0.210327H32.0857L34.2177 9.00461C35.5221 6.49396 36.5179 3.00149 36.56 0.210327H39.2811C39.253 3.14175 38.0047 8.12097 35.9148 11.2207H32.1839Z" fill="#8270FF"/>
<path d="M26.7495 8.58383H22.738L21.8404 11.2207H19.3438L23.271 0.210327H26.1744L30.1718 11.2207H27.6752L26.7495 8.58383ZM23.4674 6.46591H26.0061L24.7157 2.81916L23.4674 6.46591Z" fill="#8270FF"/>
<path d="M18.8594 3.92721C18.8594 5.44201 18.088 6.69032 16.6293 7.27941L19.0417 11.2207H16.2926L14.0906 7.64409H12.8422V11.2207H10.1072V3.19786H12.8422V5.51214H14.5534C15.6755 5.51214 16.3628 4.88097 16.3628 3.92721C16.3628 2.97344 15.8017 2.42643 14.5534 2.42643H9.26562V0.210327H14.6095C17.5269 0.210327 18.8594 1.78124 18.8594 3.92721Z" fill="#8270FF"/>
<path d="M8.68207 0.210327V2.42643H5.70857V11.2207H2.9735V2.42643H0V0.210327H8.68207Z" fill="#8270FF"/>
<path d="M158.745 27.575C157.412 27.028 156.374 26.7615 155.519 26.7615C155.042 26.7615 154.453 26.8877 154.327 27.4347C154.228 27.9116 154.425 28.2202 155.126 28.4867C155.87 28.7672 157.483 29.188 158.324 29.7209C159.797 30.6747 159.937 32.2035 159.46 33.5641C158.955 35.0087 157.637 35.6399 155.757 35.6399C154.327 35.6399 152.615 35.2612 151.367 34.5739L152.026 32.1474C153.106 32.6243 154.509 33.1854 155.715 33.1854C156.473 33.1854 156.809 32.8908 156.935 32.4841C157.062 32.0212 156.781 31.6004 156.108 31.3339C155.266 31.0113 154.102 30.6887 153.177 30.2539C151.928 29.6648 151.395 28.4165 151.62 26.9859C151.928 25.1064 153.611 24.349 155.323 24.349C156.599 24.349 158.17 24.6716 159.46 25.2046L158.745 27.575Z" fill="#7CDDA3"/>
<path d="M149.624 27.575C148.291 27.028 147.253 26.7615 146.398 26.7615C145.921 26.7615 145.332 26.8877 145.206 27.4347C145.107 27.9116 145.304 28.2202 146.005 28.4867C146.748 28.7672 148.361 29.188 149.203 29.7209C150.676 30.6747 150.816 32.2035 150.339 33.5641C149.834 35.0087 148.516 35.6399 146.636 35.6399C145.206 35.6399 143.494 35.2612 142.246 34.5739L142.905 32.1474C143.985 32.6243 145.388 33.1854 146.594 33.1854C147.352 33.1854 147.688 32.8908 147.814 32.4841C147.941 32.0212 147.66 31.6004 146.987 31.3339C146.145 31.0113 144.981 30.6887 144.055 30.2539C142.807 29.6648 142.274 28.4165 142.499 26.9859C142.807 25.1064 144.49 24.349 146.201 24.349C147.478 24.349 149.049 24.6716 150.339 25.2046L149.624 27.575Z" fill="#7CDDA3"/>
<path d="M138.519 32.7787H134.508L133.61 35.4155H131.113L135.041 24.4052H137.944L141.941 35.4155H139.445L138.519 32.7787ZM135.237 30.6607H137.776L136.485 27.014L135.237 30.6607Z" fill="#7CDDA3"/>
<path d="M127.272 30.2119C128.478 30.2119 129.264 29.5387 129.264 28.3745C129.264 27.2103 128.604 26.6213 127.272 26.6213H122.152V24.4052H127.37C130.287 24.4052 131.76 26.0181 131.76 28.3745C131.76 30.6888 130.119 32.3719 127.37 32.3719H125.729V35.4155H122.994V27.3787H125.729V30.2119H127.272Z" fill="#7CDDA3"/>
<path d="M114.819 32.4561L112.182 29.1179L111.789 28.5288V35.4155H109.223V24.4052H111.593L115.001 28.9916L118.41 24.4052H120.78V35.4155H118.213V28.5288L117.821 29.1179L115.184 32.4561H114.819Z" fill="#7CDDA3"/>
<path d="M102.242 35.4857C99.3247 35.4857 96.8281 33.5361 96.8281 29.8753C96.8281 26.2005 99.3247 24.2649 102.242 24.2649C105.16 24.2649 107.656 26.2005 107.656 29.8753C107.656 33.5361 105.16 35.4857 102.242 35.4857ZM102.242 26.5511C100.615 26.5511 99.5071 27.7293 99.5071 29.8753C99.5071 32.0212 100.615 33.1994 102.242 33.1994C103.869 33.1994 104.977 32.0212 104.977 29.8753C104.977 27.7293 103.869 26.5511 102.242 26.5511Z" fill="#7CDDA3"/>
<path d="M87.2969 29.9174C87.2969 26.495 89.1483 24.2789 92.5426 24.2789C94.0293 24.2789 95.1654 24.5735 96.0912 25.1626L95.2917 27.3085C94.6325 26.8737 93.6647 26.6493 92.6408 26.6493C90.8875 26.6493 89.9338 27.9397 89.9338 29.9174C89.9338 32.0633 90.8875 33.1433 92.6408 33.1433C93.7208 33.1433 94.6184 32.8488 95.3478 32.3859L96.2034 34.574C95.2776 35.2332 93.9592 35.5558 92.4304 35.5558C89.1623 35.5558 87.2969 33.4519 87.2969 29.9174Z" fill="#7CDDA3"/>
<path fill-rule="evenodd" clip-rule="evenodd" d="M74.353 0V10.6586C74.353 11.6866 75.7703 12.4021 76.6742 11.506C76.6743 11.5059 76.6745 11.5057 76.6746 11.5055L81.8001 6.40584L83.7893 8.38735L78.661 13.4898C76.1282 16.0028 71.5391 14.3825 71.5391 10.6586V0H74.353Z" fill="black"/>
<path fill-rule="evenodd" clip-rule="evenodd" d="M78.8283 21.0796C78.8284 21.0798 78.8286 21.08 78.8288 21.0801L83.9736 25.8217L82.0198 27.7672L76.8722 23.0229C74.2312 20.582 76.0537 16.3336 79.7058 16.3336H111.555V19.0332H79.7058C78.5642 19.0332 78.0302 20.3413 78.8283 21.0796Z" fill="#7CDDA3"/>
<path fill-rule="evenodd" clip-rule="evenodd" d="M69.258 22.7255C69.2578 22.7257 69.2577 22.7258 69.2575 22.726L64.5206 27.8368L62.5547 25.966L67.2943 20.8524C69.7759 18.1824 73.9882 20.098 73.9882 23.6323V34.3006H71.2913V23.6323C71.2913 22.4044 69.9525 21.979 69.258 22.7255Z" fill="black"/>
<path fill-rule="evenodd" clip-rule="evenodd" d="M67.4902 14.0865L62.289 9.38955L64.2179 7.3501L69.422 12.0497C72.2097 14.5742 70.1565 18.7836 66.5804 18.7836H32.3359V16.0066H66.5804C67.1941 16.0066 67.5988 15.6771 67.7705 15.2808C67.939 14.8919 67.8868 14.4463 67.4911 14.0873C67.4908 14.087 67.4905 14.0868 67.4902 14.0865Z" fill="#8270FF"/>
</svg>
