<svg width="24" height="24" viewBox="0 0 24 24" fill="none" xmlns="http://www.w3.org/2000/svg">
<path d="M10.3497 2.74663C10.8202 1.75113 12.1797 1.75112 12.6502 2.74663L14.8907 7.48681L19.9004 8.24693C20.9525 8.40656 21.3725 9.75666 20.6113 10.5315L16.9862 14.2212L17.842 19.4312C18.0216 20.5254 16.9218 21.3598 15.9808 20.8432L11.5 18.3833L7.01919 20.8432C6.07817 21.3598 4.97833 20.5254 5.15805 19.4312L6.01382 14.2212L2.38876 10.5315C1.62746 9.75666 2.04756 8.40656 3.09966 8.24693L8.10935 7.48681L10.3497 2.74663ZM11.5 3.67566L9.35424 8.2156C9.1674 8.61092 8.80623 8.8849 8.38844 8.9483L3.59038 9.6763L7.06229 13.2102C7.36461 13.5179 7.50256 13.9612 7.43119 14.3957L6.61158 19.3856L10.9031 17.0297C11.2768 16.8245 11.7232 16.8245 12.0969 17.0297L16.3884 19.3856L15.5688 14.3957C15.4975 13.9612 15.6354 13.5179 15.9377 13.2102L19.4096 9.6763L14.6115 8.9483C14.1938 8.8849 13.8326 8.61092 13.6458 8.2156L11.5 3.67566Z" fill="#BFC4D8"/>
<path d="M11.5008 2C11.0431 1.9997 10.5852 2.24857 10.3497 2.74663L8.10935 7.4868L3.09966 8.24692C2.04756 8.40656 1.62746 9.75665 2.38876 10.5315L6.01382 14.2212L5.15805 19.4312C5.0158 20.2973 5.67521 21.0006 6.42299 21C6.62051 21.0001 6.82426 20.9512 7.02105 20.8431L11.5009 18.3838L15.9808 20.8431C16.9218 21.3598 18.0216 20.5254 17.842 19.4312L16.9862 14.2212L20.6113 10.5315C21.3725 9.75665 20.9525 8.40656 19.9004 8.24692L14.8907 7.4868L12.6502 2.74663C12.4153 2.24941 11.9579 2.00055 11.5008 2ZM11.5015 16.8758V3.67884L13.6458 8.21559C13.8326 8.61091 14.1938 8.8849 14.6115 8.9483L19.4096 9.67629L15.9377 13.2102C15.6354 13.5179 15.4975 13.9612 15.5688 14.3957L16.3884 19.3856L12.0969 17.0296C11.9105 16.9274 11.7061 16.8761 11.5015 16.8758Z" fill="#BFC4D8"/>
<path d="M10.3497 2.74663C10.8202 1.75113 12.1797 1.75112 12.6502 2.74663L14.8907 7.48681L19.9004 8.24693C20.9525 8.40656 21.3725 9.75666 20.6113 10.5315L16.9862 14.2212L17.842 19.4312C18.0216 20.5254 16.9218 21.3598 15.9808 20.8432L11.5 18.3833L7.01919 20.8432C6.07817 21.3598 4.97833 20.5254 5.15805 19.4312L6.01382 14.2212L2.38876 10.5315C1.62746 9.75666 2.04756 8.40656 3.09966 8.24693L8.10935 7.48681L10.3497 2.74663Z" fill="#BFC4D8"/>
</svg>
