<svg width="436" height="64" viewBox="0 0 436 64" fill="none" xmlns="http://www.w3.org/2000/svg">
<rect width="436" height="64" rx="8" fill="white"/>
<path d="M27.95 24.85V32.68H26.3V24.85H27.95ZM29.81 28.105V29.47H27.5V28.105H29.81ZM24.305 25.765C24.305 27.515 23.765 29 22.685 30.22C21.615 31.44 20.095 32.33 18.125 32.89L17.45 31.57C19.08 31.12 20.335 30.46 21.215 29.59C22.095 28.71 22.535 27.705 22.535 26.575V25.765H24.305ZM23.525 25.765V27.1H18.065V25.765H23.525ZM23.69 32.86C24.58 32.86 25.355 32.97 26.015 33.19C26.675 33.4 27.185 33.71 27.545 34.12C27.915 34.52 28.1 34.99 28.1 35.53C28.1 36.07 27.915 36.545 27.545 36.955C27.185 37.355 26.675 37.66 26.015 37.87C25.355 38.09 24.58 38.2 23.69 38.2C22.8 38.2 22.02 38.09 21.35 37.87C20.68 37.66 20.16 37.355 19.79 36.955C19.43 36.545 19.25 36.07 19.25 35.53C19.25 34.99 19.43 34.52 19.79 34.12C20.16 33.71 20.68 33.4 21.35 33.19C22.02 32.97 22.8 32.86 23.69 32.86ZM23.69 34.135C23.11 34.135 22.61 34.19 22.19 34.3C21.77 34.41 21.445 34.57 21.215 34.78C20.995 34.98 20.885 35.23 20.885 35.53C20.885 35.82 20.995 36.07 21.215 36.28C21.445 36.49 21.77 36.65 22.19 36.76C22.61 36.87 23.11 36.925 23.69 36.925C24.27 36.925 24.77 36.87 25.19 36.76C25.61 36.65 25.93 36.49 26.15 36.28C26.38 36.07 26.495 35.82 26.495 35.53C26.495 35.23 26.38 34.98 26.15 34.78C25.93 34.57 25.61 34.41 25.19 34.3C24.77 34.19 24.27 34.135 23.69 34.135ZM42.7104 31.84V33.13H30.6204V31.84H42.7104ZM41.1954 25.24V28.66H33.7554V30.25H32.1504V27.49H39.5754V26.5H32.1204V25.24H41.1954ZM41.4804 29.665V30.94H32.1504V29.665H41.4804ZM36.6354 33.94C38.1254 33.94 39.2704 34.125 40.0704 34.495C40.8804 34.865 41.2854 35.4 41.2854 36.1C41.2854 36.79 40.8804 37.315 40.0704 37.675C39.2704 38.035 38.1254 38.215 36.6354 38.215C35.1354 38.215 33.9804 38.035 33.1704 37.675C32.3704 37.315 31.9704 36.79 31.9704 36.1C31.9704 35.4 32.3754 34.865 33.1854 34.495C33.9954 34.125 35.1454 33.94 36.6354 33.94ZM36.6354 35.155C35.6354 35.155 34.8854 35.235 34.3854 35.395C33.8954 35.545 33.6504 35.78 33.6504 36.1C33.6504 36.4 33.9004 36.63 34.4004 36.79C34.9004 36.94 35.6454 37.015 36.6354 37.015C37.6254 37.015 38.3704 36.94 38.8704 36.79C39.3704 36.63 39.6204 36.4 39.6204 36.1C39.6204 35.78 39.3704 35.545 38.8704 35.395C38.3804 35.235 37.6354 35.155 36.6354 35.155Z" fill="#191B24"/>
<path d="M412.133 44L403.733 35.6C403.067 36.1333 402.3 36.5556 401.433 36.8667C400.567 37.1778 399.644 37.3333 398.667 37.3333C396.244 37.3333 394.194 36.4944 392.517 34.8167C390.839 33.1389 390 31.0889 390 28.6667C390 26.2444 390.839 24.1944 392.517 22.5167C394.194 20.8389 396.244 20 398.667 20C401.089 20 403.139 20.8389 404.817 22.5167C406.494 24.1944 407.333 26.2444 407.333 28.6667C407.333 29.6444 407.178 30.5667 406.867 31.4333C406.556 32.3 406.133 33.0667 405.6 33.7333L414 42.1333L412.133 44ZM398.667 34.6667C400.333 34.6667 401.75 34.0833 402.917 32.9167C404.083 31.75 404.667 30.3333 404.667 28.6667C404.667 27 404.083 25.5833 402.917 24.4167C401.75 23.25 400.333 22.6667 398.667 22.6667C397 22.6667 395.583 23.25 394.417 24.4167C393.25 25.5833 392.667 27 392.667 28.6667C392.667 30.3333 393.25 31.75 394.417 32.9167C395.583 34.0833 397 34.6667 398.667 34.6667Z" fill="#BFC4D8"/>
</svg>
