<svg width="436" height="64" viewBox="0 0 436 64" fill="none" xmlns="http://www.w3.org/2000/svg">
<rect width="436" height="64" rx="8" fill="white"/>
<path d="M29.75 26.635V27.985H27.455V26.635H29.75ZM29.75 29.515V30.865H27.455V29.515H29.75ZM21.23 25.615C21.9 25.615 22.505 25.75 23.045 26.02C23.595 26.29 24.025 26.67 24.335 27.16C24.645 27.65 24.8 28.2 24.8 28.81C24.8 29.42 24.645 29.97 24.335 30.46C24.025 30.95 23.595 31.33 23.045 31.6C22.505 31.87 21.9 32.005 21.23 32.005C20.55 32.005 19.94 31.87 19.4 31.6C18.86 31.33 18.435 30.955 18.125 30.475C17.815 29.985 17.66 29.43 17.66 28.81C17.66 28.19 17.815 27.64 18.125 27.16C18.435 26.67 18.86 26.29 19.4 26.02C19.94 25.75 20.55 25.615 21.23 25.615ZM21.23 26.995C20.86 26.995 20.525 27.07 20.225 27.22C19.925 27.37 19.69 27.585 19.52 27.865C19.35 28.135 19.265 28.45 19.265 28.81C19.265 29.18 19.35 29.505 19.52 29.785C19.69 30.055 19.92 30.265 20.21 30.415C20.51 30.555 20.85 30.625 21.23 30.625C21.61 30.625 21.945 30.555 22.235 30.415C22.535 30.265 22.77 30.055 22.94 29.785C23.11 29.505 23.195 29.18 23.195 28.81C23.195 28.45 23.11 28.135 22.94 27.865C22.77 27.585 22.535 27.37 22.235 27.22C21.935 27.07 21.6 26.995 21.23 26.995ZM27.95 24.865V32.695H26.3V24.865H27.95ZM23.645 33.025C24.555 33.025 25.345 33.13 26.015 33.34C26.685 33.54 27.2 33.835 27.56 34.225C27.92 34.615 28.1 35.08 28.1 35.62C28.1 36.15 27.92 36.61 27.56 37C27.2 37.39 26.685 37.685 26.015 37.885C25.345 38.095 24.555 38.2 23.645 38.2C22.735 38.2 21.94 38.095 21.26 37.885C20.59 37.685 20.075 37.39 19.715 37C19.355 36.61 19.175 36.15 19.175 35.62C19.175 35.08 19.355 34.615 19.715 34.225C20.075 33.835 20.59 33.54 21.26 33.34C21.94 33.13 22.735 33.025 23.645 33.025ZM23.645 34.33C23.035 34.33 22.52 34.38 22.1 34.48C21.68 34.57 21.36 34.715 21.14 34.915C20.92 35.105 20.81 35.34 20.81 35.62C20.81 35.89 20.92 36.125 21.14 36.325C21.36 36.515 21.68 36.66 22.1 36.76C22.53 36.86 23.045 36.91 23.645 36.91C24.245 36.91 24.755 36.86 25.175 36.76C25.605 36.66 25.93 36.515 26.15 36.325C26.37 36.125 26.48 35.89 26.48 35.62C26.48 35.34 26.37 35.105 26.15 34.915C25.93 34.715 25.605 34.57 25.175 34.48C24.755 34.38 24.245 34.33 23.645 34.33ZM42.8604 26.635V27.985H40.5654V26.635H42.8604ZM42.8604 29.515V30.865H40.5654V29.515H42.8604ZM34.3404 25.615C35.0104 25.615 35.6154 25.75 36.1554 26.02C36.7054 26.29 37.1354 26.67 37.4454 27.16C37.7554 27.65 37.9104 28.2 37.9104 28.81C37.9104 29.42 37.7554 29.97 37.4454 30.46C37.1354 30.95 36.7054 31.33 36.1554 31.6C35.6154 31.87 35.0104 32.005 34.3404 32.005C33.6604 32.005 33.0504 31.87 32.5104 31.6C31.9704 31.33 31.5454 30.955 31.2354 30.475C30.9254 29.985 30.7704 29.43 30.7704 28.81C30.7704 28.19 30.9254 27.64 31.2354 27.16C31.5454 26.67 31.9704 26.29 32.5104 26.02C33.0504 25.75 33.6604 25.615 34.3404 25.615ZM34.3404 26.995C33.9704 26.995 33.6354 27.07 33.3354 27.22C33.0354 27.37 32.8004 27.585 32.6304 27.865C32.4604 28.135 32.3754 28.45 32.3754 28.81C32.3754 29.18 32.4604 29.505 32.6304 29.785C32.8004 30.055 33.0304 30.265 33.3204 30.415C33.6204 30.555 33.9604 30.625 34.3404 30.625C34.7204 30.625 35.0554 30.555 35.3454 30.415C35.6454 30.265 35.8804 30.055 36.0504 29.785C36.2204 29.505 36.3054 29.18 36.3054 28.81C36.3054 28.45 36.2204 28.135 36.0504 27.865C35.8804 27.585 35.6454 27.37 35.3454 27.22C35.0454 27.07 34.7104 26.995 34.3404 26.995ZM41.0604 24.865V32.695H39.4104V24.865H41.0604ZM36.7554 33.025C37.6654 33.025 38.4554 33.13 39.1254 33.34C39.7954 33.54 40.3104 33.835 40.6704 34.225C41.0304 34.615 41.2104 35.08 41.2104 35.62C41.2104 36.15 41.0304 36.61 40.6704 37C40.3104 37.39 39.7954 37.685 39.1254 37.885C38.4554 38.095 37.6654 38.2 36.7554 38.2C35.8454 38.2 35.0504 38.095 34.3704 37.885C33.7004 37.685 33.1854 37.39 32.8254 37C32.4654 36.61 32.2854 36.15 32.2854 35.62C32.2854 35.08 32.4654 34.615 32.8254 34.225C33.1854 33.835 33.7004 33.54 34.3704 33.34C35.0504 33.13 35.8454 33.025 36.7554 33.025ZM36.7554 34.33C36.1454 34.33 35.6304 34.38 35.2104 34.48C34.7904 34.57 34.4704 34.715 34.2504 34.915C34.0304 35.105 33.9204 35.34 33.9204 35.62C33.9204 35.89 34.0304 36.125 34.2504 36.325C34.4704 36.515 34.7904 36.66 35.2104 36.76C35.6404 36.86 36.1554 36.91 36.7554 36.91C37.3554 36.91 37.8654 36.86 38.2854 36.76C38.7154 36.66 39.0404 36.515 39.2604 36.325C39.4804 36.125 39.5904 35.89 39.5904 35.62C39.5904 35.34 39.4804 35.105 39.2604 34.915C39.0404 34.715 38.7154 34.57 38.2854 34.48C37.8654 34.38 37.3554 34.33 36.7554 34.33Z" fill="#191B24"/>
<path d="M412.133 44L403.733 35.6C403.067 36.1333 402.3 36.5556 401.433 36.8667C400.567 37.1778 399.644 37.3333 398.667 37.3333C396.244 37.3333 394.194 36.4944 392.517 34.8167C390.839 33.1389 390 31.0889 390 28.6667C390 26.2444 390.839 24.1944 392.517 22.5167C394.194 20.8389 396.244 20 398.667 20C401.089 20 403.139 20.8389 404.817 22.5167C406.494 24.1944 407.333 26.2444 407.333 28.6667C407.333 29.6444 407.178 30.5667 406.867 31.4333C406.556 32.3 406.133 33.0667 405.6 33.7333L414 42.1333L412.133 44ZM398.667 34.6667C400.333 34.6667 401.75 34.0833 402.917 32.9167C404.083 31.75 404.667 30.3333 404.667 28.6667C404.667 27 404.083 25.5833 402.917 24.4167C401.75 23.25 400.333 22.6667 398.667 22.6667C397 22.6667 395.583 23.25 394.417 24.4167C393.25 25.5833 392.667 27 392.667 28.6667C392.667 30.3333 393.25 31.75 394.417 32.9167C395.583 34.0833 397 34.6667 398.667 34.6667Z" fill="#BFC4D8"/>
</svg>
