<svg width="436" height="64" viewBox="0 0 436 64" fill="none" xmlns="http://www.w3.org/2000/svg">
<rect width="436" height="64" rx="8" fill="white"/>
<path d="M28.895 24.85V38.2H27.335V24.85H28.895ZM25.1 29.515V30.85H22.745V29.515H25.1ZM26.18 25.105V37.57H24.65V25.105H26.18ZM21.245 26.995V28.495C21.245 29.505 21.135 30.48 20.915 31.42C20.705 32.35 20.375 33.185 19.925 33.925C19.475 34.655 18.92 35.23 18.26 35.65L17.27 34.435C17.88 34.045 18.39 33.54 18.8 32.92C19.21 32.29 19.51 31.6 19.7 30.85C19.9 30.09 20 29.305 20 28.495V26.995H21.245ZM21.605 26.995V28.495C21.605 29.275 21.7 30.025 21.89 30.745C22.08 31.465 22.37 32.12 22.76 32.71C23.16 33.3 23.665 33.775 24.275 34.135L23.3 35.32C22.64 34.92 22.09 34.375 21.65 33.685C21.21 32.985 20.885 32.19 20.675 31.3C20.465 30.41 20.36 29.475 20.36 28.495V26.995H21.605ZM23.72 26.275V27.625H17.705V26.275H23.72ZM37.1454 26.29V26.74C37.1454 27.52 36.9204 28.24 36.4704 28.9C36.0304 29.55 35.4104 30.1 34.6104 30.55C33.8104 30.99 32.8954 31.285 31.8654 31.435L31.2504 30.115C32.1304 30.005 32.9104 29.78 33.5904 29.44C34.2704 29.1 34.7954 28.695 35.1654 28.225C35.5354 27.745 35.7204 27.25 35.7204 26.74V26.29H37.1454ZM37.5954 26.29V26.74C37.5954 27.25 37.7804 27.745 38.1504 28.225C38.5204 28.695 39.0454 29.1 39.7254 29.44C40.4054 29.78 41.1854 30.005 42.0654 30.115L41.4504 31.435C40.4204 31.285 39.5054 30.99 38.7054 30.55C37.9054 30.1 37.2804 29.55 36.8304 28.9C36.3904 28.24 36.1704 27.52 36.1704 26.74V26.29H37.5954ZM37.4454 33.25V38.23H35.7954V33.25H37.4454ZM42.6954 32.32V33.655H30.6204V32.32H42.6954ZM41.5704 25.6V26.92H31.7154V25.6H41.5704ZM54.4857 30.91V32.23H45.1857V30.91H54.4857ZM55.8207 35.275V36.625H43.7307V35.275H55.8207ZM50.5707 31.495V35.74H48.9357V31.495H50.5707ZM54.3657 25.825V27.145H46.8357V31.495H45.1857V25.825H54.3657Z" fill="#191B24"/>
<path d="M412.133 44L403.733 35.6C403.067 36.1333 402.3 36.5556 401.433 36.8667C400.567 37.1778 399.644 37.3333 398.667 37.3333C396.244 37.3333 394.194 36.4944 392.517 34.8167C390.839 33.1389 390 31.0889 390 28.6667C390 26.2444 390.839 24.1944 392.517 22.5167C394.194 20.8389 396.244 20 398.667 20C401.089 20 403.139 20.8389 404.817 22.5167C406.494 24.1944 407.333 26.2444 407.333 28.6667C407.333 29.6444 407.178 30.5667 406.867 31.4333C406.556 32.3 406.133 33.0667 405.6 33.7333L414 42.1333L412.133 44ZM398.667 34.6667C400.333 34.6667 401.75 34.0833 402.917 32.9167C404.083 31.75 404.667 30.3333 404.667 28.6667C404.667 27 404.083 25.5833 402.917 24.4167C401.75 23.25 400.333 22.6667 398.667 22.6667C397 22.6667 395.583 23.25 394.417 24.4167C393.25 25.5833 392.667 27 392.667 28.6667C392.667 30.3333 393.25 31.75 394.417 32.9167C395.583 34.0833 397 34.6667 398.667 34.6667Z" fill="#BFC4D8"/>
</svg>
