<svg width="436" height="64" viewBox="0 0 436 64" fill="none" xmlns="http://www.w3.org/2000/svg">
<rect width="436" height="64" rx="8" fill="white"/>
<path d="M29.6 32.65V33.955H17.51V32.65H29.6ZM24.335 33.28V38.215H22.685V33.28H24.335ZM20.57 25.39V27.025H26.495V25.39H28.115V31.24H18.935V25.39H20.57ZM20.57 29.92H26.495V28.315H20.57V29.92ZM35.0754 25.66V27.19C35.0754 28.54 34.7504 29.725 34.1004 30.745C33.4604 31.755 32.5454 32.475 31.3554 32.905L30.4704 31.615C31.1704 31.375 31.7654 31.03 32.2554 30.58C32.7454 30.13 33.1104 29.615 33.3504 29.035C33.6004 28.455 33.7254 27.84 33.7254 27.19V25.66H35.0754ZM35.3754 25.66V27.205C35.3754 27.795 35.4954 28.36 35.7354 28.9C35.9754 29.44 36.3304 29.925 36.8004 30.355C37.2704 30.775 37.8454 31.1 38.5254 31.33L37.6854 32.62C36.9154 32.36 36.2554 31.96 35.7054 31.42C35.1554 30.88 34.7404 30.25 34.4604 29.53C34.1804 28.81 34.0404 28.035 34.0404 27.205V25.66H35.3754ZM41.0604 24.85V34.645H39.4104V24.85H41.0604ZM42.9204 28.81V30.175H40.5954V28.81H42.9204ZM41.5854 36.625V37.945H32.6004V36.625H41.5854ZM34.2504 33.715V37.315H32.6004V33.715H34.2504Z" fill="#191B24"/>
<path d="M412.133 44L403.733 35.6C403.067 36.1333 402.3 36.5556 401.433 36.8667C400.567 37.1778 399.644 37.3333 398.667 37.3333C396.244 37.3333 394.194 36.4944 392.517 34.8167C390.839 33.1389 390 31.0889 390 28.6667C390 26.2444 390.839 24.1944 392.517 22.5167C394.194 20.8389 396.244 20 398.667 20C401.089 20 403.139 20.8389 404.817 22.5167C406.494 24.1944 407.333 26.2444 407.333 28.6667C407.333 29.6444 407.178 30.5667 406.867 31.4333C406.556 32.3 406.133 33.0667 405.6 33.7333L414 42.1333L412.133 44ZM398.667 34.6667C400.333 34.6667 401.75 34.0833 402.917 32.9167C404.083 31.75 404.667 30.3333 404.667 28.6667C404.667 27 404.083 25.5833 402.917 24.4167C401.75 23.25 400.333 22.6667 398.667 22.6667C397 22.6667 395.583 23.25 394.417 24.4167C393.25 25.5833 392.667 27 392.667 28.6667C392.667 30.3333 393.25 31.75 394.417 32.9167C395.583 34.0833 397 34.6667 398.667 34.6667Z" fill="#BFC4D8"/>
</svg>
