<svg width="436" height="64" viewBox="0 0 436 64" fill="none" xmlns="http://www.w3.org/2000/svg">
<rect width="436" height="64" rx="8" fill="white"/>
<path d="M27.2 27.1V28.42H23.9V27.1H27.2ZM27.125 29.875V31.195H23.795V29.875H27.125ZM28.595 24.85V32.665H26.945V24.85H28.595ZM24.41 25.795C24.41 26.975 24.175 28.025 23.705 28.945C23.235 29.865 22.545 30.65 21.635 31.3C20.725 31.95 19.605 32.465 18.275 32.845L17.63 31.54C18.74 31.24 19.67 30.85 20.42 30.37C21.17 29.88 21.73 29.32 22.1 28.69C22.47 28.05 22.655 27.35 22.655 26.59V25.795H24.41ZM23.81 25.795V27.115H18.335V25.795H23.81ZM24.2 32.83C25.1 32.83 25.885 32.94 26.555 33.16C27.225 33.37 27.745 33.675 28.115 34.075C28.485 34.475 28.67 34.945 28.67 35.485C28.67 36.025 28.485 36.495 28.115 36.895C27.745 37.295 27.22 37.6 26.54 37.81C25.87 38.03 25.09 38.14 24.2 38.14C23.3 38.14 22.51 38.03 21.83 37.81C21.16 37.6 20.64 37.295 20.27 36.895C19.91 36.495 19.73 36.025 19.73 35.485C19.73 34.945 19.91 34.475 20.27 34.075C20.64 33.675 21.16 33.37 21.83 33.16C22.51 32.94 23.3 32.83 24.2 32.83ZM24.2 34.105C23.61 34.105 23.1 34.16 22.67 34.27C22.25 34.37 21.925 34.525 21.695 34.735C21.475 34.935 21.365 35.185 21.365 35.485C21.365 35.775 21.48 36.025 21.71 36.235C21.94 36.445 22.265 36.605 22.685 36.715C23.115 36.815 23.62 36.865 24.2 36.865C24.79 36.865 25.295 36.815 25.715 36.715C26.145 36.605 26.475 36.445 26.705 36.235C26.935 36.025 27.05 35.775 27.05 35.485C27.05 35.045 26.8 34.705 26.3 34.465C25.8 34.225 25.1 34.105 24.2 34.105ZM37.1454 26.29V26.74C37.1454 27.52 36.9204 28.24 36.4704 28.9C36.0304 29.55 35.4104 30.1 34.6104 30.55C33.8104 30.99 32.8954 31.285 31.8654 31.435L31.2504 30.115C32.1304 30.005 32.9104 29.78 33.5904 29.44C34.2704 29.1 34.7954 28.695 35.1654 28.225C35.5354 27.745 35.7204 27.25 35.7204 26.74V26.29H37.1454ZM37.5954 26.29V26.74C37.5954 27.25 37.7804 27.745 38.1504 28.225C38.5204 28.695 39.0454 29.1 39.7254 29.44C40.4054 29.78 41.1854 30.005 42.0654 30.115L41.4504 31.435C40.4204 31.285 39.5054 30.99 38.7054 30.55C37.9054 30.1 37.2804 29.55 36.8304 28.9C36.3904 28.24 36.1704 27.52 36.1704 26.74V26.29H37.5954ZM37.4454 33.25V38.23H35.7954V33.25H37.4454ZM42.6954 32.32V33.655H30.6204V32.32H42.6954ZM41.5704 25.6V26.92H31.7154V25.6H41.5704Z" fill="#191B24"/>
<path d="M412.133 44L403.733 35.6C403.067 36.1333 402.3 36.5556 401.433 36.8667C400.567 37.1778 399.644 37.3333 398.667 37.3333C396.244 37.3333 394.194 36.4944 392.517 34.8167C390.839 33.1389 390 31.0889 390 28.6667C390 26.2444 390.839 24.1944 392.517 22.5167C394.194 20.8389 396.244 20 398.667 20C401.089 20 403.139 20.8389 404.817 22.5167C406.494 24.1944 407.333 26.2444 407.333 28.6667C407.333 29.6444 407.178 30.5667 406.867 31.4333C406.556 32.3 406.133 33.0667 405.6 33.7333L414 42.1333L412.133 44ZM398.667 34.6667C400.333 34.6667 401.75 34.0833 402.917 32.9167C404.083 31.75 404.667 30.3333 404.667 28.6667C404.667 27 404.083 25.5833 402.917 24.4167C401.75 23.25 400.333 22.6667 398.667 22.6667C397 22.6667 395.583 23.25 394.417 24.4167C393.25 25.5833 392.667 27 392.667 28.6667C392.667 30.3333 393.25 31.75 394.417 32.9167C395.583 34.0833 397 34.6667 398.667 34.6667Z" fill="#BFC4D8"/>
</svg>
