<svg width="436" height="64" viewBox="0 0 436 64" fill="none" xmlns="http://www.w3.org/2000/svg">
<rect width="436" height="64" rx="8" fill="white"/>
<path d="M27.26 27.685V29.02H23.48V27.685H27.26ZM27.26 31.855V33.19H23.48V31.855H27.26ZM21.11 25.81C21.77 25.81 22.355 26.005 22.865 26.395C23.385 26.775 23.79 27.325 24.08 28.045C24.37 28.755 24.515 29.585 24.515 30.535C24.515 31.485 24.37 32.32 24.08 33.04C23.79 33.76 23.385 34.315 22.865 34.705C22.355 35.085 21.77 35.275 21.11 35.275C20.46 35.275 19.875 35.085 19.355 34.705C18.845 34.315 18.445 33.76 18.155 33.04C17.865 32.32 17.72 31.485 17.72 30.535C17.72 29.585 17.865 28.755 18.155 28.045C18.445 27.325 18.845 26.775 19.355 26.395C19.875 26.005 20.46 25.81 21.11 25.81ZM21.11 27.31C20.75 27.31 20.43 27.44 20.15 27.7C19.88 27.95 19.665 28.32 19.505 28.81C19.355 29.29 19.28 29.865 19.28 30.535C19.28 31.205 19.355 31.785 19.505 32.275C19.665 32.765 19.88 33.14 20.15 33.4C20.43 33.66 20.75 33.79 21.11 33.79C21.48 33.79 21.805 33.66 22.085 33.4C22.365 33.14 22.58 32.765 22.73 32.275C22.89 31.785 22.97 31.205 22.97 30.535C22.97 29.865 22.89 29.29 22.73 28.81C22.58 28.32 22.365 27.95 22.085 27.7C21.805 27.44 21.48 27.31 21.11 27.31ZM28.61 24.835V38.23H26.975V24.835H28.61ZM37.2354 25.285V25.96C37.2354 26.8 37.0054 27.58 36.5454 28.3C36.0854 29.01 35.4404 29.605 34.6104 30.085C33.7904 30.565 32.8454 30.885 31.7754 31.045L31.1304 29.74C32.0404 29.61 32.8504 29.355 33.5604 28.975C34.2704 28.595 34.8204 28.14 35.2104 27.61C35.6004 27.08 35.7954 26.53 35.7954 25.96V25.285H37.2354ZM37.5354 25.285V25.96C37.5354 26.52 37.7304 27.065 38.1204 27.595C38.5104 28.125 39.0604 28.585 39.7704 28.975C40.4804 29.355 41.2904 29.61 42.2004 29.74L41.5554 31.045C40.4954 30.885 39.5504 30.565 38.7204 30.085C37.8904 29.595 37.2454 28.995 36.7854 28.285C36.3254 27.565 36.0954 26.79 36.0954 25.96V25.285H37.5354ZM37.4454 33.25V38.215H35.7954V33.25H37.4454ZM42.6954 32.215V33.565H30.6204V32.215H42.6954Z" fill="#191B24"/>
<path d="M412.133 44L403.733 35.6C403.067 36.1333 402.3 36.5556 401.433 36.8667C400.567 37.1778 399.644 37.3333 398.667 37.3333C396.244 37.3333 394.194 36.4944 392.517 34.8167C390.839 33.1389 390 31.0889 390 28.6667C390 26.2444 390.839 24.1944 392.517 22.5167C394.194 20.8389 396.244 20 398.667 20C401.089 20 403.139 20.8389 404.817 22.5167C406.494 24.1944 407.333 26.2444 407.333 28.6667C407.333 29.6444 407.178 30.5667 406.867 31.4333C406.556 32.3 406.133 33.0667 405.6 33.7333L414 42.1333L412.133 44ZM398.667 34.6667C400.333 34.6667 401.75 34.0833 402.917 32.9167C404.083 31.75 404.667 30.3333 404.667 28.6667C404.667 27 404.083 25.5833 402.917 24.4167C401.75 23.25 400.333 22.6667 398.667 22.6667C397 22.6667 395.583 23.25 394.417 24.4167C393.25 25.5833 392.667 27 392.667 28.6667C392.667 30.3333 393.25 31.75 394.417 32.9167C395.583 34.0833 397 34.6667 398.667 34.6667Z" fill="#BFC4D8"/>
</svg>
