<svg width="436" height="64" viewBox="0 0 436 64" fill="none" xmlns="http://www.w3.org/2000/svg">
<rect width="436" height="64" rx="8" fill="white"/>
<path d="M29.585 31.42V32.74H17.51V31.42H29.585ZM24.35 29.575V32.005H22.7V29.575H24.35ZM24.095 25.09V25.555C24.095 26.365 23.87 27.105 23.42 27.775C22.97 28.435 22.34 28.985 21.53 29.425C20.73 29.865 19.81 30.165 18.77 30.325L18.155 29.02C19.055 28.91 19.85 28.685 20.54 28.345C21.23 27.995 21.76 27.58 22.13 27.1C22.51 26.61 22.7 26.095 22.7 25.555V25.09H24.095ZM24.365 25.09V25.555C24.365 26.105 24.55 26.625 24.92 27.115C25.29 27.595 25.82 28.005 26.51 28.345C27.2 28.685 27.995 28.91 28.895 29.02L28.28 30.325C27.23 30.155 26.3 29.855 25.49 29.425C24.69 28.985 24.065 28.435 23.615 27.775C23.175 27.115 22.955 26.375 22.955 25.555V25.09H24.365ZM28.1 33.82V38.215H26.465V35.125H18.845V33.82H28.1ZM42.7104 35.26V36.61H30.6204V35.26H42.7104ZM37.4754 32.515V35.965H35.8404V32.515H37.4754ZM37.2804 27.625V27.91C37.2804 28.78 37.0504 29.57 36.5904 30.28C36.1404 30.98 35.4954 31.565 34.6554 32.035C33.8154 32.495 32.8354 32.805 31.7154 32.965L31.1154 31.66C32.0854 31.53 32.9254 31.285 33.6354 30.925C34.3454 30.555 34.8854 30.11 35.2554 29.59C35.6354 29.06 35.8254 28.5 35.8254 27.91V27.625H37.2804ZM37.4904 27.625V27.91C37.4904 28.5 37.6754 29.06 38.0454 29.59C38.4254 30.11 38.9704 30.555 39.6804 30.925C40.4004 31.285 41.2454 31.53 42.2154 31.66L41.5854 32.965C40.4754 32.805 39.5004 32.495 38.6604 32.035C37.8304 31.565 37.1854 30.975 36.7254 30.265C36.2754 29.555 36.0504 28.77 36.0504 27.91V27.625H37.4904ZM41.6304 26.755V28.09H31.7004V26.755H41.6304ZM37.4754 25.06V27.295H35.8404V25.06H37.4754Z" fill="#191B24"/>
<path d="M412.133 44L403.733 35.6C403.067 36.1333 402.3 36.5556 401.433 36.8667C400.567 37.1778 399.644 37.3333 398.667 37.3333C396.244 37.3333 394.194 36.4944 392.517 34.8167C390.839 33.1389 390 31.0889 390 28.6667C390 26.2444 390.839 24.1944 392.517 22.5167C394.194 20.8389 396.244 20 398.667 20C401.089 20 403.139 20.8389 404.817 22.5167C406.494 24.1944 407.333 26.2444 407.333 28.6667C407.333 29.6444 407.178 30.5667 406.867 31.4333C406.556 32.3 406.133 33.0667 405.6 33.7333L414 42.1333L412.133 44ZM398.667 34.6667C400.333 34.6667 401.75 34.0833 402.917 32.9167C404.083 31.75 404.667 30.3333 404.667 28.6667C404.667 27 404.083 25.5833 402.917 24.4167C401.75 23.25 400.333 22.6667 398.667 22.6667C397 22.6667 395.583 23.25 394.417 24.4167C393.25 25.5833 392.667 27 392.667 28.6667C392.667 30.3333 393.25 31.75 394.417 32.9167C395.583 34.0833 397 34.6667 398.667 34.6667Z" fill="#BFC4D8"/>
</svg>
