<svg width="436" height="64" viewBox="0 0 436 64" fill="none" xmlns="http://www.w3.org/2000/svg">
<rect width="436" height="64" rx="8" fill="white"/>
<path d="M27.8 29.17V30.505H24.2V29.17H27.8ZM22.07 25.93V28.045C22.07 29.125 21.925 30.16 21.635 31.15C21.345 32.13 20.925 33 20.375 33.76C19.825 34.51 19.165 35.08 18.395 35.47L17.375 34.15C18.065 33.82 18.665 33.335 19.175 32.695C19.685 32.055 20.07 31.33 20.33 30.52C20.6 29.71 20.735 28.885 20.735 28.045V25.93H22.07ZM22.385 25.93V28.045C22.385 28.885 22.51 29.695 22.76 30.475C23.02 31.255 23.395 31.95 23.885 32.56C24.375 33.16 24.965 33.615 25.655 33.925L24.68 35.245C23.91 34.865 23.25 34.315 22.7 33.595C22.16 32.865 21.75 32.025 21.47 31.075C21.19 30.115 21.05 29.105 21.05 28.045V25.93H22.385ZM28.61 24.835V38.23H26.975V24.835H28.61ZM37.4604 31.18V33.115H35.8104V31.18H37.4604ZM36.6504 25C38.1604 25 39.3354 25.2 40.1754 25.6C41.0154 25.99 41.4354 26.55 41.4354 27.28C41.4354 28.02 41.0154 28.59 40.1754 28.99C39.3354 29.38 38.1604 29.575 36.6504 29.575C35.1404 29.575 33.9654 29.38 33.1254 28.99C32.2854 28.59 31.8654 28.025 31.8654 27.295C31.8654 26.555 32.2854 25.99 33.1254 25.6C33.9654 25.2 35.1404 25 36.6504 25ZM36.6504 26.215C35.6404 26.215 34.8754 26.305 34.3554 26.485C33.8354 26.665 33.5754 26.93 33.5754 27.28C33.5754 27.64 33.8304 27.91 34.3404 28.09C34.8604 28.27 35.6254 28.36 36.6354 28.36C37.6554 28.36 38.4254 28.27 38.9454 28.09C39.4654 27.91 39.7254 27.64 39.7254 27.28C39.7254 26.93 39.4654 26.665 38.9454 26.485C38.4254 26.305 37.6604 26.215 36.6504 26.215ZM42.6804 30.265V31.57H30.6204V30.265H42.6804ZM41.1804 32.575V35.845H33.6654V37.195H32.0604V34.69H39.5604V33.82H32.0154V32.575H41.1804ZM41.5554 36.85V38.095H32.0604V36.85H41.5554Z" fill="#191B24"/>
<path d="M412.133 44L403.733 35.6C403.067 36.1333 402.3 36.5556 401.433 36.8667C400.567 37.1778 399.644 37.3333 398.667 37.3333C396.244 37.3333 394.194 36.4944 392.517 34.8167C390.839 33.1389 390 31.0889 390 28.6667C390 26.2444 390.839 24.1944 392.517 22.5167C394.194 20.8389 396.244 20 398.667 20C401.089 20 403.139 20.8389 404.817 22.5167C406.494 24.1944 407.333 26.2444 407.333 28.6667C407.333 29.6444 407.178 30.5667 406.867 31.4333C406.556 32.3 406.133 33.0667 405.6 33.7333L414 42.1333L412.133 44ZM398.667 34.6667C400.333 34.6667 401.75 34.0833 402.917 32.9167C404.083 31.75 404.667 30.3333 404.667 28.6667C404.667 27 404.083 25.5833 402.917 24.4167C401.75 23.25 400.333 22.6667 398.667 22.6667C397 22.6667 395.583 23.25 394.417 24.4167C393.25 25.5833 392.667 27 392.667 28.6667C392.667 30.3333 393.25 31.75 394.417 32.9167C395.583 34.0833 397 34.6667 398.667 34.6667Z" fill="#BFC4D8"/>
</svg>
